<?xml version="1.0" standalone="no"?>
<!DOCTYPE svg PUBLIC "-//W3C//DTD SVG 20010904//EN"
 "http://www.w3.org/TR/2001/REC-SVG-20010904/DTD/svg10.dtd">
<svg version="1.0" xmlns="http://www.w3.org/2000/svg"
 width="1818.000000pt" height="1816.000000pt" viewBox="0 0 1818.000000 1816.000000"
 preserveAspectRatio="xMidYMid meet">

<g transform="translate(0.000000,1816.000000) scale(0.100000,-0.100000)"
fill="#000000" stroke="none">
<path d="M9828 18139 c-167 -20 -327 -72 -465 -150 -95 -54 -235 -189 -285
-274 -74 -127 -118 -281 -118 -411 0 -37 -2 -65 -5 -62 -3 3 -10 45 -16 94
-13 112 -58 249 -111 339 -55 94 -184 220 -284 279 -356 209 -874 206 -1287
-6 -267 -137 -438 -333 -508 -583 -20 -73 -19 -332 3 -408 9 -31 12 -54 7 -51
-5 3 -9 11 -9 17 0 7 -25 62 -55 122 -113 227 -287 370 -535 437 -73 20 -109
23 -255 23 -191 0 -271 -13 -440 -72 -222 -77 -399 -186 -555 -343 -145 -144
-219 -262 -272 -430 -19 -63 -23 -96 -23 -210 0 -160 19 -238 91 -383 50 -99
47 -99 -39 9 -164 205 -425 319 -684 300 -305 -23 -589 -162 -839 -411 -167
-167 -273 -330 -332 -515 -36 -110 -45 -182 -40 -312 4 -104 9 -136 35 -210
40 -116 97 -209 184 -302 39 -42 69 -76 66 -76 -3 0 -41 25 -84 56 -94 68
-147 95 -250 130 -103 35 -280 44 -395 21 -615 -128 -1121 -911 -969 -1500 11
-42 42 -119 68 -170 39 -76 64 -109 143 -187 64 -64 119 -108 167 -135 86 -47
96 -64 18 -29 -155 68 -381 90 -525 50 -402 -111 -724 -518 -811 -1024 -94
-550 139 -984 597 -1117 94 -27 124 -42 59 -29 -71 15 -264 8 -340 -11 -293
-74 -525 -306 -639 -639 -122 -353 -103 -764 48 -1071 155 -313 413 -482 745
-488 65 -1 101 -5 85 -9 -16 -3 -69 -16 -119 -27 -375 -87 -612 -389 -656
-837 -38 -394 124 -852 393 -1110 227 -218 514 -288 816 -201 45 13 82 23 82
21 0 -2 -44 -26 -97 -53 -225 -116 -371 -292 -434 -526 -30 -109 -33 -358 -5
-485 71 -325 251 -629 492 -828 242 -199 518 -273 775 -207 66 17 211 83 288
130 34 22 21 6 -61 -76 -144 -142 -210 -261 -244 -437 -49 -256 41 -571 239
-838 28 -38 92 -110 142 -160 183 -185 383 -305 610 -366 107 -29 327 -32 425
-5 146 39 324 152 420 266 54 63 63 60 16 -6 -52 -73 -113 -207 -137 -303 -18
-71 -21 -104 -17 -210 4 -107 10 -139 38 -223 116 -345 442 -650 848 -791 149
-52 255 -70 407 -70 347 0 602 154 762 459 49 92 52 89 19 -15 -138 -432 66
-845 537 -1084 520 -264 1144 -197 1434 153 71 87 137 222 168 346 14 55 26
103 28 107 1 4 2 -50 3 -120 1 -190 45 -332 148 -477 194 -271 594 -433 1016
-411 660 34 1097 440 1051 978 -8 93 -1 89 23 -12 24 -103 103 -261 169 -341
120 -144 294 -241 522 -291 91 -19 369 -16 480 6 568 112 978 494 1002 932 7
117 -6 202 -48 327 -16 49 -29 91 -29 95 0 4 20 -29 45 -72 125 -220 290 -347
535 -412 91 -25 306 -25 420 -1 412 88 794 368 972 713 76 146 101 244 102
399 1 108 -3 144 -22 209 -27 94 -77 197 -138 284 -24 35 -44 66 -44 69 0 3
24 -19 53 -49 114 -118 250 -201 396 -240 107 -29 284 -29 402 0 365 90 704
378 890 757 163 331 158 662 -11 918 -44 67 -155 183 -225 237 -37 28 -34 27
95 -38 58 -29 141 -61 184 -72 107 -27 274 -27 379 -1 387 99 732 494 853 976
35 137 44 361 19 490 -53 286 -237 511 -507 621 -38 15 -66 29 -65 31 2 2 39
-7 83 -18 117 -32 319 -33 427 -1 403 117 695 547 737 1085 33 433 -131 810
-427 986 -83 49 -220 95 -333 113 l-85 13 110 6 c176 10 305 51 432 137 73 49
197 180 241 255 183 306 221 742 96 1122 -106 324 -312 560 -571 654 -135 50
-264 60 -448 36 -37 -4 -36 -3 15 14 164 55 257 108 359 205 116 111 195 257
237 441 27 117 25 354 -4 491 -43 202 -122 391 -230 553 -73 110 -226 265
-324 329 -253 164 -533 185 -805 62 -37 -17 -68 -29 -70 -27 -2 2 23 20 54 40
177 110 303 271 365 467 20 66 23 95 23 245 0 155 -2 179 -28 269 -86 309
-287 603 -542 794 -125 93 -306 176 -445 202 -81 16 -238 13 -321 -5 -100 -22
-259 -101 -341 -169 -37 -31 -70 -56 -74 -56 -3 0 18 26 46 58 105 117 177
261 206 410 18 94 18 168 -1 275 -41 237 -163 447 -378 654 -196 188 -419 310
-687 375 -33 8 -113 13 -200 13 -121 0 -158 -4 -224 -23 -174 -50 -322 -153
-436 -304 -36 -47 -66 -85 -68 -84 -1 2 15 41 37 87 61 131 75 194 76 344 0
149 -20 235 -81 358 -167 333 -564 602 -992 672 -143 24 -385 17 -492 -14
-277 -81 -458 -250 -568 -531 -18 -47 -31 -71 -28 -55 35 200 30 325 -19 471
-70 211 -249 401 -490 522 -228 114 -565 172 -817 141z m-230 -1157 c14 -8 22
-22 22 -40 0 -39 -14 -55 -46 -54 -16 0 -191 3 -389 6 -198 4 -368 6 -378 6
-9 0 -22 11 -29 25 -9 19 -7 29 7 51 l17 26 386 -4 c284 -3 393 -7 410 -16z
m-1020 -14 c16 -16 15 -53 -3 -71 -9 -9 -46 -17 -97 -22 -101 -8 -338 -33
-394 -41 -47 -7 -74 12 -74 51 0 40 35 52 195 69 83 9 164 17 180 19 74 9 182
6 193 -5z m1562 -34 c231 -30 228 -29 242 -59 9 -19 7 -30 -7 -51 -16 -24 -21
-26 -64 -19 -25 3 -143 19 -261 34 -119 15 -221 31 -228 35 -17 10 -15 62 4
81 18 17 4 18 314 -21z m-2316 -77 c17 -48 -9 -62 -194 -96 -91 -17 -201 -39
-245 -50 -92 -20 -121 -15 -131 24 -11 45 17 60 176 94 239 50 293 60 340 58
39 -2 46 -5 54 -30z m2926 -27 c215 -46 356 -83 373 -98 24 -22 21 -59 -7 -77
-22 -15 -34 -13 -162 19 -77 19 -186 44 -244 57 -129 27 -140 32 -140 69 0 34
33 62 64 55 12 -3 64 -14 116 -25z m-3684 -125 c13 -20 14 -31 7 -48 -9 -19
-37 -31 -154 -65 -79 -23 -191 -57 -248 -76 -114 -37 -140 -36 -156 8 -15 43
14 60 210 120 330 101 316 99 341 61z m4546 -111 c126 -43 236 -83 244 -91 33
-33 3 -100 -40 -90 -12 3 -127 41 -256 85 -211 71 -236 82 -244 105 -11 31 14
67 47 67 10 0 123 -34 249 -76z m-5276 -129 c27 -41 2 -65 -112 -109 -55 -22
-160 -66 -234 -98 -140 -61 -173 -66 -185 -27 -16 51 -2 63 147 127 345 147
356 150 384 107z m5903 -111 c228 -98 336 -156 339 -182 4 -27 -23 -62 -48
-62 -9 0 -54 18 -101 41 -46 22 -147 68 -224 101 -77 33 -146 65 -152 71 -16
12 -17 59 -1 75 21 21 53 13 187 -44z m-6610 -188 c7 -8 11 -27 9 -43 -3 -24
-15 -34 -88 -72 -47 -23 -150 -79 -230 -122 -152 -84 -178 -90 -201 -48 -21
41 2 61 177 156 239 129 266 142 295 143 15 0 32 -6 38 -14z m7293 -147 c147
-82 312 -182 321 -193 4 -6 6 -24 5 -41 -2 -22 -10 -32 -29 -39 -22 -7 -44 2
-160 71 -74 44 -173 100 -220 126 -47 26 -92 53 -99 62 -17 21 -4 64 23 74 27
10 43 5 159 -60z m-7967 -225 c9 -9 15 -28 13 -42 -2 -22 -39 -51 -216 -169
-120 -81 -224 -143 -237 -143 -30 0 -47 22 -43 57 3 24 31 47 216 171 117 78
221 142 232 142 10 0 26 -7 35 -16z m8631 -187 c171 -119 277 -197 292 -215
26 -33 2 -82 -40 -82 -11 0 -81 44 -157 99 -75 54 -169 120 -209 146 -80 53
-97 82 -67 115 10 11 28 20 40 20 12 0 76 -37 141 -83z m-9264 -254 c39 -35
24 -57 -104 -160 -67 -53 -157 -128 -201 -165 -87 -75 -116 -84 -143 -42 -16
24 -16 27 3 52 20 28 234 211 336 288 64 48 81 52 109 27z m9898 -232 c69 -58
156 -136 195 -172 66 -63 69 -68 60 -95 -8 -23 -17 -30 -43 -32 -29 -3 -44 7
-125 80 -51 47 -138 124 -194 172 -65 55 -103 94 -103 107 0 30 37 61 63 53
12 -4 78 -55 147 -113z m-10474 -275 c11 -18 13 -30 6 -42 -5 -10 -90 -98
-188 -196 -144 -143 -184 -178 -206 -178 -32 0 -53 30 -44 63 3 12 86 102 184
200 192 191 214 204 248 153z m11089 -308 c96 -101 178 -193 182 -206 7 -29
-21 -62 -53 -62 -14 0 -42 22 -81 62 -32 35 -113 120 -180 189 -68 70 -123
135 -123 144 0 26 29 55 56 55 16 0 72 -52 199 -182z m-11633 -235 c32 -29 21
-56 -63 -154 -44 -52 -117 -140 -162 -196 -45 -57 -89 -106 -100 -109 -26 -8
-67 22 -67 49 0 22 112 169 253 332 90 104 103 111 139 78z m12041 -228 c114
-136 257 -331 257 -352 0 -43 -49 -67 -81 -40 -9 6 -59 68 -111 137 -52 69
-121 156 -152 194 -58 71 -63 84 -45 117 8 15 19 19 42 17 25 -2 43 -17 90
-73z m-12511 -379 c18 -27 3 -62 -77 -177 -47 -67 -110 -161 -141 -210 -30
-48 -64 -91 -75 -94 -27 -9 -69 20 -69 47 0 26 261 420 293 443 22 15 56 11
69 -9z m12941 -201 c89 -126 247 -390 247 -414 0 -34 -17 -51 -51 -51 -23 0
-34 12 -75 78 -26 42 -89 143 -141 223 -51 80 -93 152 -93 159 0 22 32 50 57
50 16 0 33 -13 56 -45z m-13355 -455 c14 -24 11 -32 -56 -151 -38 -69 -93
-171 -121 -227 -55 -110 -80 -134 -119 -113 -48 25 -38 53 116 336 87 161 107
187 140 183 16 -2 32 -13 40 -28z m13736 -178 c29 -33 226 -434 226 -462 0
-35 -21 -52 -56 -48 -25 3 -38 24 -147 241 -107 212 -119 240 -109 262 14 31
61 34 86 7z m-14103 -482 c29 -16 24 -57 -25 -166 -23 -55 -65 -153 -91 -219
-27 -66 -55 -128 -63 -137 -22 -26 -59 -22 -77 6 -16 23 -14 31 38 163 74 187
135 324 154 346 18 19 36 21 64 7z m14423 -196 c15 -6 163 -367 188 -458 15
-57 4 -80 -39 -84 -38 -4 -44 4 -83 113 -18 50 -59 157 -92 239 -56 141 -58
150 -43 172 15 24 39 30 69 18z m-14696 -526 c19 -19 15 -40 -43 -221 -29 -95
-63 -205 -75 -244 -18 -62 -25 -74 -47 -79 -61 -16 -76 34 -43 148 53 183 113
365 126 386 16 24 62 30 82 10z m2072 -1120 c0 -582 -5 -1034 -10 -1077 -30
-231 -126 -424 -262 -528 -72 -55 -164 -100 -257 -125 -111 -30 -353 -30 -465
1 -207 55 -345 167 -435 352 -41 84 -107 286 -97 296 5 5 269 53 273 49 2 -2
11 -32 20 -67 20 -84 64 -179 108 -239 100 -136 299 -205 481 -167 179 38 280
141 337 346 21 75 21 92 25 999 l3 922 -260 0 -261 0 0 120 0 120 400 0 400 0
0 -1002z m1262 45 l3 -958 28 -88 c33 -106 55 -152 114 -234 175 -248 563
-346 917 -233 251 81 422 264 498 535 22 80 22 81 26 1008 l3 927 140 0 140 0
-3 -962 -3 -963 -26 -95 c-109 -396 -386 -638 -823 -717 -112 -20 -368 -23
-481 -4 -438 72 -709 320 -802 734 -14 63 -17 196 -20 1040 l-4 967 145 0 145
0 3 -957z m4380 -383 c285 -734 521 -1345 524 -1357 l6 -23 -148 0 -149 0
-160 420 -160 420 -603 -2 -604 -3 -157 -415 -157 -415 -147 -3 c-87 -1 -147
1 -147 7 0 5 232 607 516 1338 284 730 520 1338 525 1351 9 22 10 22 176 20
l167 -3 518 -1335z m2467 148 c487 -653 886 -1187 887 -1185 1 1 -2 61 -7 132
-4 72 -8 606 -9 1188 l0 1057 130 0 130 0 0 -1360 0 -1360 -167 2 -167 3 -871
1173 c-480 644 -874 1174 -876 1176 -2 2 -3 -526 -1 -1175 l3 -1179 -131 0
-130 0 0 1360 0 1360 162 -2 163 -3 884 -1187z m3068 1140 c12 -29 247 -636
523 -1348 276 -712 505 -1301 507 -1308 4 -10 -27 -12 -147 -10 l-151 3 -159
415 -159 415 -603 3 -603 2 -159 -420 -159 -420 -149 0 c-116 0 -149 3 -145
13 2 6 240 618 528 1360 l524 1347 166 0 166 0 20 -52z m1716 -30 c14 -12 100
-290 137 -446 15 -65 7 -100 -24 -108 -48 -12 -61 7 -96 143 -18 70 -48 178
-66 240 -19 61 -34 120 -34 131 0 43 48 65 83 40z m-15172 -551 c8 -17 4 -50
-15 -136 -15 -63 -37 -175 -51 -249 -14 -74 -30 -141 -36 -148 -15 -18 -50
-18 -74 0 -19 14 -19 16 -2 123 21 125 75 376 88 410 12 33 75 33 90 0z
m15373 -209 c12 -20 54 -231 86 -441 13 -85 4 -107 -45 -107 -40 0 -50 13 -59
85 -4 28 -23 141 -43 252 -39 221 -38 233 18 233 19 0 33 -8 43 -22z m-15519
-538 c16 -18 16 -26 1 -157 -8 -76 -20 -192 -27 -258 -6 -66 -15 -126 -21
-132 -14 -18 -63 -16 -78 2 -15 18 -9 147 19 384 15 124 22 157 37 168 25 18
48 16 69 -7z m15634 -213 c12 -16 26 -137 41 -366 10 -149 10 -165 -6 -182
-23 -26 -60 -24 -78 4 -8 14 -16 66 -20 142 -3 66 -11 179 -18 252 -9 106 -9
135 2 147 15 19 64 21 79 3z m-15698 -553 c11 -13 13 -69 10 -278 -2 -159 -7
-266 -13 -273 -13 -16 -60 -17 -76 -1 -16 16 -17 520 -2 549 13 24 62 26 81 3z
m15735 -208 c18 -14 19 -27 16 -267 -2 -139 -8 -262 -12 -275 -12 -30 -45 -39
-75 -20 l-24 16 6 262 c5 247 6 264 25 281 25 21 38 21 64 3z m-15718 -563 c5
-10 12 -67 16 -128 4 -60 14 -174 22 -253 15 -135 15 -145 -2 -163 -20 -22
-43 -24 -68 -6 -20 15 -28 67 -52 344 -18 207 -15 223 41 223 23 0 37 -6 43
-17z m15697 -220 c19 -37 -37 -513 -62 -539 -20 -20 -57 -18 -77 5 -15 16 -15
27 -6 87 12 74 50 399 50 426 0 47 74 63 95 21z m-2892 -142 c149 -39 227 -96
348 -256 37 -49 121 -147 187 -216 65 -70 127 -144 138 -165 30 -61 24 -160
-15 -262 -28 -75 -31 -94 -31 -195 0 -238 -32 -413 -90 -499 -58 -84 -105
-118 -165 -118 -30 0 -95 40 -407 246 -349 231 -373 245 -402 237 -26 -7 -78
-77 -350 -471 l-320 -462 -1232 0 c-872 0 -1233 3 -1236 11 -2 7 -55 7 -183
-1 l-180 -12 -128 52 -128 53 88 89 c73 74 113 104 235 176 92 54 148 93 148
103 0 11 366 240 1059 662 l1058 646 503 -219 c489 -213 503 -219 531 -205 19
10 30 25 34 48 3 17 34 189 69 380 46 250 68 353 81 367 10 11 36 24 59 29 59
14 241 4 329 -18z m-5138 -330 c104 -60 137 -275 70 -465 -111 -320 -349 -687
-773 -1195 -112 -133 -172 -214 -176 -235 -9 -43 -28 -277 -24 -282 2 -2 21
36 43 84 107 244 243 444 397 587 114 105 204 137 268 93 44 -30 60 -61 60
-119 0 -128 -164 -313 -374 -420 -47 -24 -86 -46 -86 -50 0 -3 13 -26 29 -51
87 -137 225 -144 392 -18 96 72 223 233 249 315 47 150 171 306 285 360 113
53 196 38 253 -46 35 -49 28 -159 -15 -250 -70 -150 -167 -225 -280 -217 -32
2 -66 8 -75 12 -14 6 -18 1 -24 -31 -4 -21 -8 -60 -8 -88 -2 -172 71 -216 225
-138 65 32 99 62 270 235 108 109 201 198 206 198 24 0 46 -28 40 -51 -13 -52
-334 -396 -431 -461 -75 -52 -151 -78 -223 -78 -75 1 -129 25 -176 81 -38 44
-77 145 -77 199 0 26 -6 22 -88 -59 -258 -254 -488 -254 -652 1 l-39 60 -26
-58 c-15 -33 -42 -95 -61 -139 -37 -86 -59 -117 -87 -128 -27 -10 -63 11 -81
50 -13 28 -35 134 -36 178 0 6 -23 -30 -51 -80 -89 -156 -182 -254 -262 -276
-173 -46 -289 160 -274 490 l6 123 -54 -93 c-90 -158 -143 -207 -213 -195 -69
11 -110 78 -120 196 l-7 77 -119 -32 c-65 -18 -122 -38 -126 -45 -4 -7 -10
-36 -14 -66 -14 -123 -82 -287 -181 -440 -59 -91 -219 -262 -336 -359 -242
-203 -595 -371 -878 -419 -182 -31 -396 -15 -476 34 -82 51 -117 110 -116 200
0 165 151 353 428 537 254 168 593 309 1226 509 171 54 169 52 155 158 -14
103 -42 168 -92 214 -99 91 -260 87 -486 -12 -126 -56 -246 -127 -330 -198
-37 -31 -87 -70 -110 -87 -68 -49 -130 -36 -102 22 5 12 54 72 107 132 241
272 504 627 664 898 178 304 240 527 145 527 -74 0 -282 -170 -426 -349 -164
-203 -332 -512 -471 -866 -115 -291 -164 -450 -228 -745 -29 -133 -57 -164
-108 -122 -14 11 -27 43 -39 92 -25 111 -24 760 1 935 65 439 173 766 332
1005 83 125 132 170 184 170 56 0 91 -35 91 -92 0 -37 -12 -61 -86 -173 -145
-221 -228 -413 -293 -676 -64 -257 -105 -547 -114 -799 -3 -87 -1 -106 6 -80
108 386 354 968 521 1228 222 348 505 613 654 612 48 -1 109 -36 139 -81 27
-41 28 -47 27 -168 0 -117 -3 -133 -33 -216 -77 -213 -241 -467 -471 -734 -39
-44 -70 -82 -70 -84 0 -3 46 12 103 32 98 34 108 36 237 36 129 0 137 -1 189
-28 74 -40 142 -106 180 -176 33 -62 71 -193 71 -244 0 -23 4 -28 18 -25 248
64 243 62 249 88 12 50 61 146 92 182 51 58 108 81 191 76 51 -3 77 -9 99 -26
l29 -21 27 44 c14 25 37 53 51 62 23 15 28 15 59 0 53 -25 54 -58 9 -286 -36
-180 -39 -209 -39 -361 0 -148 2 -170 22 -212 11 -25 33 -54 47 -63 25 -16 27
-16 70 9 76 45 153 151 255 354 32 64 51 115 51 136 0 97 60 431 116 644 167
643 415 1091 672 1219 95 46 164 51 227 14z m-7592 -66 c8 -8 20 -45 26 -82 6
-37 28 -153 48 -257 l37 -188 -23 -19 c-23 -19 -54 -18 -74 1 -11 10 -85 377
-93 462 -5 48 -3 72 6 83 16 19 54 19 73 0z m15512 -215 c21 -23 20 -32 -35
-285 -55 -249 -57 -254 -86 -265 -30 -12 -60 1 -69 29 -3 11 5 64 19 118 14
54 39 166 56 248 31 150 42 175 80 175 9 0 25 -9 35 -20z m-15353 -537 c8 -10
32 -81 53 -158 21 -77 51 -178 67 -224 34 -104 36 -146 7 -162 -29 -15 -66 2
-80 38 -11 29 -123 409 -134 455 -12 50 54 89 87 51z m15172 -206 c16 -11 18
-22 12 -58 -12 -76 -150 -471 -168 -483 -25 -15 -72 4 -76 31 -3 22 144 488
161 511 12 16 48 15 71 -1z m-14951 -519 c16 -12 175 -385 200 -470 14 -47 -3
-70 -47 -66 -27 3 -35 11 -63 68 -36 73 -161 387 -164 410 -4 36 2 51 24 60
30 12 31 12 50 -2z m14705 -210 c7 -7 12 -20 12 -31 0 -33 -179 -445 -208
-479 -8 -10 -24 -18 -35 -18 -23 0 -57 27 -57 46 0 7 25 68 56 136 31 68 74
166 95 218 22 52 47 105 55 118 16 24 62 30 82 10z m-14402 -496 c8 -5 159
-283 242 -445 12 -24 12 -31 -2 -52 -16 -25 -49 -32 -72 -17 -30 19 -244 438
-244 476 0 35 46 59 76 38z m14072 -198 c12 -8 22 -24 22 -34 0 -40 -245 -467
-272 -476 -26 -8 -68 22 -68 48 0 11 35 82 78 157 44 75 98 172 122 216 57
107 74 120 118 89z m-13713 -470 c15 -6 280 -396 298 -438 16 -40 -42 -84 -78
-58 -37 25 -285 415 -285 447 0 13 10 31 22 39 26 19 22 18 43 10z m13333
-196 c24 -24 10 -57 -86 -199 -144 -212 -190 -273 -214 -282 -28 -10 -68 17
-68 46 0 12 34 69 76 127 42 58 103 146 137 195 33 50 67 98 75 108 17 20 62
23 80 5z m-12751 -609 c199 -247 196 -244 188 -269 -9 -29 -46 -45 -72 -32
-20 11 -180 202 -281 335 -55 72 -62 96 -36 121 38 38 57 24 201 -155z m12297
-15 c33 -32 28 -41 -103 -199 -152 -183 -222 -255 -246 -255 -24 0 -55 33 -55
57 0 7 46 65 103 130 56 65 133 156 170 201 72 86 98 99 131 66z m-11939 -412
c6 -4 90 -89 188 -189 155 -158 178 -185 172 -205 -8 -26 -32 -48 -54 -48 -18
0 -344 322 -373 368 -19 30 -19 34 -4 57 16 24 50 33 71 17z m11423 -158 c26
-18 28 -45 7 -78 -9 -13 -93 -96 -186 -185 -139 -131 -176 -161 -200 -161 -29
0 -49 22 -49 54 0 17 350 366 379 378 23 10 24 9 49 -8z m-10796 -446 c46 -40
132 -113 191 -161 59 -49 112 -98 118 -109 14 -27 -13 -68 -46 -68 -42 0 -425
324 -425 360 0 10 7 26 16 34 30 30 60 18 146 -56z m10243 -88 c11 -12 15 -27
11 -42 -11 -39 -391 -338 -430 -338 -31 0 -48 22 -44 56 2 23 30 49 139 134
74 58 164 129 198 158 67 56 97 64 126 32z m-9652 -379 c45 -32 138 -96 207
-141 69 -46 128 -88 132 -94 25 -37 -17 -94 -58 -80 -20 8 -291 189 -381 256
-57 41 -68 72 -37 102 26 27 52 18 137 -43z m9037 -81 c41 -41 27 -59 -142
-171 -228 -151 -284 -182 -313 -175 -26 7 -42 43 -31 71 3 8 26 27 51 43 26
15 120 75 210 133 204 134 195 129 225 99z m-8346 -359 c78 -43 180 -99 228
-125 51 -28 90 -55 93 -67 8 -26 -20 -69 -44 -69 -19 0 -177 81 -364 187 -90
51 -117 75 -117 102 0 15 37 51 52 51 6 0 75 -35 152 -79z m7694 -43 c22 -22
14 -65 -15 -86 -16 -11 -116 -65 -224 -121 -206 -107 -249 -119 -269 -80 -26
47 -10 59 227 181 126 64 237 117 249 117 11 1 25 -4 32 -11z m-7072 -274 c44
-20 144 -63 224 -96 167 -69 189 -85 174 -125 -16 -47 -52 -42 -225 30 -324
136 -341 147 -305 202 22 33 39 32 132 -11z m6382 -66 c16 -16 15 -63 -1 -77
-29 -23 -455 -191 -487 -191 -9 0 -25 9 -35 20 -15 16 -17 26 -9 47 8 23 30
34 159 84 83 31 186 73 230 92 86 37 124 44 143 25z m-5570 -248 c103 -32 213
-67 245 -76 70 -19 90 -47 63 -89 -9 -14 -25 -25 -36 -25 -24 0 -365 104 -447
137 -43 17 -63 31 -67 46 -6 26 18 67 40 67 9 0 100 -27 202 -60z m4850 -22
c16 -16 15 -63 -2 -77 -15 -13 -221 -76 -391 -121 -127 -33 -150 -28 -150 31
0 39 -31 26 295 122 197 58 229 64 248 45z m-4068 -186 c102 -22 202 -43 223
-47 24 -4 43 -15 53 -30 15 -23 15 -27 0 -50 -22 -33 -36 -32 -236 9 -294 61
-310 66 -322 92 -8 18 -8 31 1 50 14 33 20 32 281 -24z m3328 -14 c16 -16 15
-63 -1 -76 -12 -11 -178 -45 -395 -82 -130 -22 -155 -19 -167 20 -8 26 11 59
38 65 12 2 114 21 227 41 113 20 207 38 209 40 10 9 78 3 89 -8z m-2711 -93
c59 -8 175 -21 257 -29 122 -11 152 -17 163 -32 18 -25 16 -48 -7 -69 -19 -17
-29 -17 -148 -6 -200 19 -365 41 -389 51 -39 16 -27 94 14 100 1 0 51 -7 110
-15z m1944 -25 c23 -13 26 -62 4 -80 -19 -15 -198 -36 -392 -46 -154 -8 -173
-3 -173 42 0 42 22 52 137 59 60 4 162 13 228 20 160 16 173 17 196 5z m-758
-62 c17 -21 15 -52 -5 -73 -6 -6 -106 -9 -271 -7 -282 3 -297 6 -297 58 0 47
19 49 296 46 248 -3 260 -4 277 -24z"/>
<path d="M8642 11112 c-34 -98 -152 -411 -260 -697 l-198 -520 264 -3 c145 -1
379 -1 521 0 l257 3 -133 350 c-214 561 -319 843 -353 945 -17 52 -32 95 -33
96 -1 1 -30 -77 -65 -174z"/>
<path d="M14691 11152 c-24 -70 -139 -381 -257 -691 -118 -310 -214 -565 -214
-567 0 -2 234 -4 520 -4 286 0 520 2 520 3 0 2 -96 258 -214 568 -117 310
-233 621 -257 691 -24 71 -46 128 -49 128 -3 0 -25 -57 -49 -128z"/>
<path d="M13663 7812 l-72 -400 42 -151 c23 -83 45 -151 50 -151 4 0 168 -107
365 -238 426 -284 387 -260 373 -234 -17 31 -13 95 10 185 26 99 23 231 -6
287 -10 19 -61 80 -115 135 -127 133 -165 205 -165 316 0 69 3 80 25 104 35
37 85 61 168 80 77 18 97 33 87 65 -13 40 -167 260 -198 284 -96 72 -205 105
-372 113 l-120 6 -72 -401z"/>
<path d="M11458 7184 c-708 -432 -1023 -629 -1023 -641 0 -10 -11 -20 -25 -23
-14 -4 -25 -11 -24 -16 0 -5 23 -80 50 -166 l49 -158 32 0 c18 0 33 -4 33 -10
0 -11 1824 -14 2183 -3 l217 6 267 386 c147 212 283 408 302 435 25 34 30 48
18 43 -12 -5 -17 -1 -17 13 0 10 -5 22 -11 26 -6 3 -78 -61 -167 -151 -178
-180 -221 -215 -267 -215 -70 0 -85 64 -29 128 60 71 337 239 434 265 21 5 22
10 16 49 -4 23 -9 44 -11 46 -2 2 -69 -31 -149 -72 -81 -42 -158 -76 -174 -76
-57 0 -70 49 -23 94 34 33 143 69 258 87 81 12 82 13 76 38 -3 14 -6 27 -7 28
-1 1 -38 -4 -81 -12 -181 -31 -401 -28 -470 6 -61 30 -59 90 3 116 45 19 91
14 302 -31 85 -19 174 -36 197 -39 40 -5 41 -4 40 21 -2 25 -27 38 -422 210
-231 101 -450 196 -487 212 l-67 29 -1023 -625z"/>
<path d="M8807 7779 c-87 -57 -204 -207 -295 -379 -82 -153 -231 -532 -309
-784 -43 -142 -95 -344 -91 -356 7 -20 250 291 427 547 211 307 344 542 382
678 31 109 33 273 5 304 -27 29 -65 26 -119 -10z"/>
<path d="M8581 6385 c-33 -25 -89 -77 -125 -116 -64 -70 -180 -229 -171 -237
8 -8 129 66 197 120 80 65 140 135 174 205 43 86 16 96 -75 28z"/>
<path d="M9368 6346 c-61 -47 -158 -179 -158 -215 0 -22 42 -34 80 -22 77 23
150 136 150 231 0 50 -13 51 -72 6z"/>
<path d="M7196 6218 c-44 -44 -77 -136 -83 -228 l-5 -75 42 60 c22 33 66 104
97 158 45 80 53 101 42 108 -27 17 -61 9 -93 -23z"/>
<path d="M6155 5811 c-362 -123 -550 -195 -728 -281 -386 -186 -637 -421 -637
-598 0 -48 4 -58 33 -87 43 -43 99 -58 212 -58 230 1 523 102 778 269 138 90
222 161 347 290 115 120 179 204 240 317 59 110 107 259 83 256 -5 0 -152 -49
-328 -108z"/>
</g>
</svg>
